<svg width="128" height="128" viewBox="0 0 128 128" fill="none" xmlns="http://www.w3.org/2000/svg">
<mask id="path-1-outside-1_274_2" maskUnits="userSpaceOnUse" x="18.5" y="4.5" width="91" height="119" fill="black">
<rect fill="white" x="18.5" y="4.5" width="91" height="119"/>
<path fill-rule="evenodd" clip-rule="evenodd" d="M92.2322 6.23223C93.2085 5.25592 94.7915 5.25592 95.7678 6.23223L107.768 18.2322C108.744 19.2085 108.744 20.7915 107.768 21.7678C106.791 22.7441 105.209 22.7441 104.232 21.7678L96.5 14.0355V26.5C96.5 27.8807 95.3807 29 94 29C92.6193 29 91.5 27.8807 91.5 26.5V14.0355L83.7678 21.7678C82.7915 22.7441 81.2085 22.7441 80.2322 21.7678C79.2559 20.7915 79.2559 19.2085 80.2322 18.2322L92.2322 6.23223ZM33.3327 11.5907C34.4156 11.2908 35.5656 11.7502 36.1437 12.7138L43.6437 25.2138C44.3541 26.3977 43.9702 27.9334 42.7862 28.6437C41.6023 29.3541 40.0666 28.9702 39.3563 27.7862L36.5 23.0258V26.5C36.5 27.8807 35.3807 29 34 29C32.6193 29 31.5 27.8807 31.5 26.5V14C31.5 12.8763 32.2497 11.8907 33.3327 11.5907ZM45.2138 32.6896C46.3977 31.9792 47.9334 32.3631 48.6437 33.5471L63.6437 58.5471C64.3541 59.731 63.9702 61.2667 62.7862 61.9771C61.6023 62.6874 60.0666 62.3035 59.3563 61.1196L44.3563 36.1196C43.6459 34.9356 44.0298 33.4 45.2138 32.6896ZM34 32.3333C35.3807 32.3333 36.5 33.4526 36.5 34.8333V59.8333C36.5 61.2141 35.3807 62.3333 34 62.3333C32.6193 62.3333 31.5 61.2141 31.5 59.8333V34.8333C31.5 33.4526 32.6193 32.3333 34 32.3333ZM94 32.3333C95.3807 32.3333 96.5 33.4526 96.5 34.8333V59.8333C96.5 61.2141 95.3807 62.3333 94 62.3333C92.6193 62.3333 91.5 61.2141 91.5 59.8333V34.8333C91.5 33.4526 92.6193 32.3333 94 32.3333ZM65.2138 66.0229C66.3977 65.3126 67.9334 65.6965 68.6437 66.8804L83.6437 91.8804C84.3541 93.0644 83.9702 94.6 82.7862 95.3104C81.6023 96.0208 80.0666 95.6369 79.3563 94.4529L64.3563 69.4529C63.6459 68.269 64.0298 66.7333 65.2138 66.0229ZM34 65.6667C35.3807 65.6667 36.5 66.786 36.5 68.1667V93.1667C36.5 94.5474 35.3807 95.6667 34 95.6667C32.6193 95.6667 31.5 94.5474 31.5 93.1667V68.1667C31.5 66.786 32.6193 65.6667 34 65.6667ZM94 65.6667C95.3807 65.6667 96.5 66.786 96.5 68.1667V93.1667C96.5 94.5474 95.3807 95.6667 94 95.6667C92.6193 95.6667 91.5 94.5474 91.5 93.1667V68.1667C91.5 66.786 92.6193 65.6667 94 65.6667ZM85.2138 99.3563C86.3977 98.6459 87.9334 99.0298 88.6437 100.214L91.5 104.974V101.5C91.5 100.119 92.6193 99 94 99C95.3807 99 96.5 100.119 96.5 101.5V114C96.5 115.124 95.7503 116.109 94.6673 116.409C93.5844 116.709 92.4344 116.25 91.8563 115.286L84.3563 102.786C83.6459 101.602 84.0298 100.067 85.2138 99.3563ZM34 99C35.3807 99 36.5 100.119 36.5 101.5V113.964L44.2322 106.232C45.2085 105.256 46.7915 105.256 47.7678 106.232C48.7441 107.209 48.7441 108.791 47.7678 109.768L35.7678 121.768C34.7915 122.744 33.2085 122.744 32.2322 121.768L20.2322 109.768C19.2559 108.791 19.2559 107.209 20.2322 106.232C21.2085 105.256 22.7915 105.256 23.7678 106.232L31.5 113.964V101.5C31.5 100.119 32.6193 99 34 99Z"/>
</mask>
<path fill-rule="evenodd" clip-rule="evenodd" d="M92.2322 6.23223C93.2085 5.25592 94.7915 5.25592 95.7678 6.23223L107.768 18.2322C108.744 19.2085 108.744 20.7915 107.768 21.7678C106.791 22.7441 105.209 22.7441 104.232 21.7678L96.5 14.0355V26.5C96.5 27.8807 95.3807 29 94 29C92.6193 29 91.5 27.8807 91.5 26.5V14.0355L83.7678 21.7678C82.7915 22.7441 81.2085 22.7441 80.2322 21.7678C79.2559 20.7915 79.2559 19.2085 80.2322 18.2322L92.2322 6.23223ZM33.3327 11.5907C34.4156 11.2908 35.5656 11.7502 36.1437 12.7138L43.6437 25.2138C44.3541 26.3977 43.9702 27.9334 42.7862 28.6437C41.6023 29.3541 40.0666 28.9702 39.3563 27.7862L36.5 23.0258V26.5C36.5 27.8807 35.3807 29 34 29C32.6193 29 31.5 27.8807 31.5 26.5V14C31.5 12.8763 32.2497 11.8907 33.3327 11.5907ZM45.2138 32.6896C46.3977 31.9792 47.9334 32.3631 48.6437 33.5471L63.6437 58.5471C64.3541 59.731 63.9702 61.2667 62.7862 61.9771C61.6023 62.6874 60.0666 62.3035 59.3563 61.1196L44.3563 36.1196C43.6459 34.9356 44.0298 33.4 45.2138 32.6896ZM34 32.3333C35.3807 32.3333 36.5 33.4526 36.5 34.8333V59.8333C36.5 61.2141 35.3807 62.3333 34 62.3333C32.6193 62.3333 31.5 61.2141 31.5 59.8333V34.8333C31.5 33.4526 32.6193 32.3333 34 32.3333ZM94 32.3333C95.3807 32.3333 96.5 33.4526 96.5 34.8333V59.8333C96.5 61.2141 95.3807 62.3333 94 62.3333C92.6193 62.3333 91.5 61.2141 91.5 59.8333V34.8333C91.5 33.4526 92.6193 32.3333 94 32.3333ZM65.2138 66.0229C66.3977 65.3126 67.9334 65.6965 68.6437 66.8804L83.6437 91.8804C84.3541 93.0644 83.9702 94.6 82.7862 95.3104C81.6023 96.0208 80.0666 95.6369 79.3563 94.4529L64.3563 69.4529C63.6459 68.269 64.0298 66.7333 65.2138 66.0229ZM34 65.6667C35.3807 65.6667 36.5 66.786 36.5 68.1667V93.1667C36.5 94.5474 35.3807 95.6667 34 95.6667C32.6193 95.6667 31.5 94.5474 31.5 93.1667V68.1667C31.5 66.786 32.6193 65.6667 34 65.6667ZM94 65.6667C95.3807 65.6667 96.5 66.786 96.5 68.1667V93.1667C96.5 94.5474 95.3807 95.6667 94 95.6667C92.6193 95.6667 91.5 94.5474 91.5 93.1667V68.1667C91.5 66.786 92.6193 65.6667 94 65.6667ZM85.2138 99.3563C86.3977 98.6459 87.9334 99.0298 88.6437 100.214L91.5 104.974V101.5C91.5 100.119 92.6193 99 94 99C95.3807 99 96.5 100.119 96.5 101.5V114C96.5 115.124 95.7503 116.109 94.6673 116.409C93.5844 116.709 92.4344 116.25 91.8563 115.286L84.3563 102.786C83.6459 101.602 84.0298 100.067 85.2138 99.3563ZM34 99C35.3807 99 36.5 100.119 36.5 101.5V113.964L44.2322 106.232C45.2085 105.256 46.7915 105.256 47.7678 106.232C48.7441 107.209 48.7441 108.791 47.7678 109.768L35.7678 121.768C34.7915 122.744 33.2085 122.744 32.2322 121.768L20.2322 109.768C19.2559 108.791 19.2559 107.209 20.2322 106.232C21.2085 105.256 22.7915 105.256 23.7678 106.232L31.5 113.964V101.5C31.5 100.119 32.6193 99 34 99Z" fill="black"/>
<path d="M104.232 21.7678L103.525 22.4749L103.525 22.4749L104.232 21.7678ZM96.5 14.0355L97.2071 13.3284C96.9211 13.0424 96.491 12.9569 96.1173 13.1117C95.7436 13.2664 95.5 13.6311 95.5 14.0355H96.5ZM91.5 14.0355H92.5C92.5 13.6311 92.2564 13.2664 91.8827 13.1117C91.509 12.9569 91.0789 13.0424 90.7929 13.3284L91.5 14.0355ZM83.7678 21.7678L84.4749 22.4749L84.4749 22.4749L83.7678 21.7678ZM36.1437 12.7138L35.2862 13.2283L35.2862 13.2283L36.1437 12.7138ZM33.3327 11.5907L33.5996 12.5544L33.5996 12.5544L33.3327 11.5907ZM43.6437 25.2138L44.5012 24.6993L44.5012 24.6993L43.6437 25.2138ZM39.3563 27.7862L38.4988 28.3007L38.4988 28.3007L39.3563 27.7862ZM36.5 23.0258L37.3575 22.5113C37.1262 22.1259 36.6662 21.9421 36.2331 22.0621C35.7999 22.1821 35.5 22.5763 35.5 23.0258H36.5ZM48.6437 33.5471L49.5012 33.0326L49.5012 33.0326L48.6437 33.5471ZM45.2138 32.6896L44.6993 31.8321L44.6993 31.8321L45.2138 32.6896ZM63.6437 58.5471L62.7862 59.0616L62.7862 59.0616L63.6437 58.5471ZM62.7862 61.9771L62.2717 61.1196L62.2717 61.1196L62.7862 61.9771ZM59.3563 61.1196L60.2138 60.6051L60.2138 60.6051L59.3563 61.1196ZM44.3563 36.1196L43.4988 36.6341L43.4988 36.6341L44.3563 36.1196ZM68.6437 66.8804L67.7862 67.3949L67.7862 67.3949L68.6437 66.8804ZM65.2138 66.0229L64.6993 65.1654L64.6993 65.1654L65.2138 66.0229ZM83.6437 91.8804L84.5012 91.3659L84.5012 91.3659L83.6437 91.8804ZM82.7862 95.3104L82.2717 94.4529L82.2717 94.4529L82.7862 95.3104ZM79.3563 94.4529L80.2138 93.9384L80.2138 93.9384L79.3563 94.4529ZM64.3563 69.4529L65.2138 68.9384L65.2138 68.9384L64.3563 69.4529ZM88.6437 100.214L89.5012 99.6993L89.5012 99.6993L88.6437 100.214ZM85.2138 99.3563L84.6993 98.4988L84.6993 98.4988L85.2138 99.3563ZM91.5 104.974L90.6425 105.489C90.8738 105.874 91.3338 106.058 91.7669 105.938C92.2001 105.818 92.5 105.424 92.5 104.974H91.5ZM94.6673 116.409L94.4004 115.446L94.4004 115.446L94.6673 116.409ZM91.8563 115.286L90.9988 115.801L90.9988 115.801L91.8563 115.286ZM84.3563 102.786L83.4988 103.301L83.4988 103.301L84.3563 102.786ZM36.5 113.964H35.5C35.5 114.369 35.7436 114.734 36.1173 114.888C36.491 115.043 36.9211 114.958 37.2071 114.672L36.5 113.964ZM44.2322 106.232L44.9393 106.939L44.9393 106.939L44.2322 106.232ZM23.7678 106.232L23.0607 106.939L23.0607 106.939L23.7678 106.232ZM31.5 113.964L30.7929 114.672C31.0789 114.958 31.509 115.043 31.8827 114.888C32.2564 114.734 32.5 114.369 32.5 113.964H31.5ZM96.4749 5.52513C95.108 4.15829 92.892 4.15829 91.5251 5.52513L92.9393 6.93934C93.5251 6.35355 94.4749 6.35355 95.0607 6.93934L96.4749 5.52513ZM108.475 17.5251L96.4749 5.52513L95.0607 6.93934L107.061 18.9393L108.475 17.5251ZM108.475 22.4749C109.842 21.108 109.842 18.892 108.475 17.5251L107.061 18.9393C107.646 19.5251 107.646 20.4749 107.061 21.0607L108.475 22.4749ZM103.525 22.4749C104.892 23.8417 107.108 23.8417 108.475 22.4749L107.061 21.0607C106.475 21.6464 105.525 21.6464 104.939 21.0607L103.525 22.4749ZM95.7929 14.7426L103.525 22.4749L104.939 21.0607L97.2071 13.3284L95.7929 14.7426ZM97.5 26.5V14.0355H95.5V26.5H97.5ZM94 30C95.933 30 97.5 28.433 97.5 26.5H95.5C95.5 27.3284 94.8284 28 94 28V30ZM90.5 26.5C90.5 28.433 92.067 30 94 30V28C93.1716 28 92.5 27.3284 92.5 26.5H90.5ZM90.5 14.0355V26.5H92.5V14.0355H90.5ZM84.4749 22.4749L92.2071 14.7426L90.7929 13.3284L83.0607 21.0607L84.4749 22.4749ZM79.5251 22.4749C80.892 23.8417 83.108 23.8417 84.4749 22.4749L83.0607 21.0607C82.4749 21.6464 81.5251 21.6464 80.9393 21.0607L79.5251 22.4749ZM79.5251 17.5251C78.1583 18.892 78.1583 21.108 79.5251 22.4749L80.9393 21.0607C80.3536 20.4749 80.3536 19.5251 80.9393 18.9393L79.5251 17.5251ZM91.5251 5.52513L79.5251 17.5251L80.9393 18.9393L92.9393 6.93934L91.5251 5.52513ZM37.0012 12.1993C36.1918 10.8503 34.5818 10.2071 33.0657 10.627L33.5996 12.5544C34.2494 12.3745 34.9394 12.6501 35.2862 13.2283L37.0012 12.1993ZM44.5012 24.6993L37.0012 12.1993L35.2862 13.2283L42.7862 25.7283L44.5012 24.6993ZM43.3007 29.5012C44.9583 28.5067 45.4957 26.3568 44.5012 24.6993L42.7862 25.7283C43.2125 26.4386 42.9821 27.36 42.2717 27.7862L43.3007 29.5012ZM38.4988 28.3007C39.4933 29.9583 41.6432 30.4957 43.3007 29.5012L42.2717 27.7862C41.5614 28.2125 40.64 27.9821 40.2138 27.2717L38.4988 28.3007ZM35.6425 23.5403L38.4988 28.3007L40.2138 27.2717L37.3575 22.5113L35.6425 23.5403ZM37.5 26.5V23.0258H35.5V26.5H37.5ZM34 30C35.933 30 37.5 28.433 37.5 26.5H35.5C35.5 27.3284 34.8284 28 34 28V30ZM30.5 26.5C30.5 28.433 32.067 30 34 30V28C33.1716 28 32.5 27.3284 32.5 26.5H30.5ZM30.5 14V26.5H32.5V14H30.5ZM33.0657 10.627C31.5496 11.0469 30.5 12.4268 30.5 14H32.5C32.5 13.3258 32.9498 12.7344 33.5996 12.5544L33.0657 10.627ZM49.5012 33.0326C48.5067 31.3751 46.3568 30.8376 44.6993 31.8321L45.7283 33.5471C46.4386 33.1209 47.36 33.3512 47.7862 34.0616L49.5012 33.0326ZM64.5012 58.0326L49.5012 33.0326L47.7862 34.0616L62.7862 59.0616L64.5012 58.0326ZM63.3007 62.8346C64.9583 61.84 65.4957 59.6901 64.5012 58.0326L62.7862 59.0616C63.2125 59.772 62.9821 60.6934 62.2717 61.1196L63.3007 62.8346ZM58.4988 61.6341C59.4933 63.2916 61.6432 63.8291 63.3007 62.8346L62.2717 61.1196C61.5614 61.5458 60.64 61.3154 60.2138 60.6051L58.4988 61.6341ZM43.4988 36.6341L58.4988 61.6341L60.2138 60.6051L45.2138 35.6051L43.4988 36.6341ZM44.6993 31.8321C43.0417 32.8266 42.5043 34.9765 43.4988 36.6341L45.2138 35.6051C44.7875 34.8947 45.0179 33.9733 45.7283 33.5471L44.6993 31.8321ZM37.5 34.8333C37.5 32.9003 35.933 31.3333 34 31.3333V33.3333C34.8284 33.3333 35.5 34.0049 35.5 34.8333H37.5ZM37.5 59.8333V34.8333H35.5V59.8333H37.5ZM34 63.3333C35.933 63.3333 37.5 61.7663 37.5 59.8333H35.5C35.5 60.6618 34.8284 61.3333 34 61.3333V63.3333ZM30.5 59.8333C30.5 61.7663 32.067 63.3333 34 63.3333V61.3333C33.1716 61.3333 32.5 60.6618 32.5 59.8333H30.5ZM30.5 34.8333V59.8333H32.5V34.8333H30.5ZM34 31.3333C32.067 31.3333 30.5 32.9003 30.5 34.8333H32.5C32.5 34.0049 33.1716 33.3333 34 33.3333V31.3333ZM97.5 34.8333C97.5 32.9003 95.933 31.3333 94 31.3333V33.3333C94.8284 33.3333 95.5 34.0049 95.5 34.8333H97.5ZM97.5 59.8333V34.8333H95.5V59.8333H97.5ZM94 63.3333C95.933 63.3333 97.5 61.7663 97.5 59.8333H95.5C95.5 60.6618 94.8284 61.3333 94 61.3333V63.3333ZM90.5 59.8333C90.5 61.7663 92.067 63.3333 94 63.3333V61.3333C93.1716 61.3333 92.5 60.6618 92.5 59.8333H90.5ZM90.5 34.8333V59.8333H92.5V34.8333H90.5ZM94 31.3333C92.067 31.3333 90.5 32.9003 90.5 34.8333H92.5C92.5 34.0049 93.1716 33.3333 94 33.3333V31.3333ZM69.5012 66.3659C68.5067 64.7084 66.3568 64.1709 64.6993 65.1654L65.7283 66.8804C66.4386 66.4542 67.36 66.6846 67.7862 67.3949L69.5012 66.3659ZM84.5012 91.3659L69.5012 66.3659L67.7862 67.3949L82.7862 92.3949L84.5012 91.3659ZM83.3007 96.1679C84.9583 95.1734 85.4957 93.0235 84.5012 91.3659L82.7862 92.3949C83.2125 93.1053 82.9821 94.0267 82.2717 94.4529L83.3007 96.1679ZM78.4988 94.9674C79.4933 96.6249 81.6432 97.1624 83.3007 96.1679L82.2717 94.4529C81.5614 94.8791 80.64 94.6488 80.2138 93.9384L78.4988 94.9674ZM63.4988 69.9674L78.4988 94.9674L80.2138 93.9384L65.2138 68.9384L63.4988 69.9674ZM64.6993 65.1654C63.0417 66.16 62.5043 68.3099 63.4988 69.9674L65.2138 68.9384C64.7875 68.228 65.0179 67.3067 65.7283 66.8804L64.6993 65.1654ZM37.5 68.1667C37.5 66.2337 35.933 64.6667 34 64.6667V66.6667C34.8284 66.6667 35.5 67.3382 35.5 68.1667H37.5ZM37.5 93.1667V68.1667H35.5V93.1667H37.5ZM34 96.6667C35.933 96.6667 37.5 95.0997 37.5 93.1667H35.5C35.5 93.9951 34.8284 94.6667 34 94.6667V96.6667ZM30.5 93.1667C30.5 95.0997 32.067 96.6667 34 96.6667V94.6667C33.1716 94.6667 32.5 93.9951 32.5 93.1667H30.5ZM30.5 68.1667V93.1667H32.5V68.1667H30.5ZM34 64.6667C32.067 64.6667 30.5 66.2337 30.5 68.1667H32.5C32.5 67.3382 33.1716 66.6667 34 66.6667V64.6667ZM97.5 68.1667C97.5 66.2337 95.933 64.6667 94 64.6667V66.6667C94.8284 66.6667 95.5 67.3382 95.5 68.1667H97.5ZM97.5 93.1667V68.1667H95.5V93.1667H97.5ZM94 96.6667C95.933 96.6667 97.5 95.0997 97.5 93.1667H95.5C95.5 93.9951 94.8284 94.6667 94 94.6667V96.6667ZM90.5 93.1667C90.5 95.0997 92.067 96.6667 94 96.6667V94.6667C93.1716 94.6667 92.5 93.9951 92.5 93.1667H90.5ZM90.5 68.1667V93.1667H92.5V68.1667H90.5ZM94 64.6667C92.067 64.6667 90.5 66.2337 90.5 68.1667H92.5C92.5 67.3382 93.1716 66.6667 94 66.6667V64.6667ZM89.5012 99.6993C88.5067 98.0417 86.3568 97.5043 84.6993 98.4988L85.7283 100.214C86.4386 99.7875 87.36 100.018 87.7862 100.728L89.5012 99.6993ZM92.3575 104.46L89.5012 99.6993L87.7862 100.728L90.6425 105.489L92.3575 104.46ZM90.5 101.5V104.974H92.5V101.5H90.5ZM94 98C92.067 98 90.5 99.567 90.5 101.5H92.5C92.5 100.672 93.1716 100 94 100V98ZM97.5 101.5C97.5 99.567 95.933 98 94 98V100C94.8284 100 95.5 100.672 95.5 101.5H97.5ZM97.5 114V101.5H95.5V114H97.5ZM94.9343 117.373C96.4504 116.953 97.5 115.573 97.5 114H95.5C95.5 114.674 95.0502 115.266 94.4004 115.446L94.9343 117.373ZM90.9988 115.801C91.8082 117.15 93.4182 117.793 94.9343 117.373L94.4004 115.446C93.7506 115.626 93.0606 115.35 92.7138 114.772L90.9988 115.801ZM83.4988 103.301L90.9988 115.801L92.7138 114.772L85.2138 102.272L83.4988 103.301ZM84.6993 98.4988C83.0417 99.4933 82.5043 101.643 83.4988 103.301L85.2138 102.272C84.7875 101.561 85.0179 100.64 85.7283 100.214L84.6993 98.4988ZM37.5 101.5C37.5 99.567 35.933 98 34 98V100C34.8284 100 35.5 100.672 35.5 101.5H37.5ZM37.5 113.964V101.5H35.5V113.964H37.5ZM37.2071 114.672L44.9393 106.939L43.5251 105.525L35.7929 113.257L37.2071 114.672ZM44.9393 106.939C45.5251 106.354 46.4749 106.354 47.0607 106.939L48.4749 105.525C47.108 104.158 44.892 104.158 43.5251 105.525L44.9393 106.939ZM47.0607 106.939C47.6464 107.525 47.6464 108.475 47.0607 109.061L48.4749 110.475C49.8417 109.108 49.8417 106.892 48.4749 105.525L47.0607 106.939ZM47.0607 109.061L35.0607 121.061L36.4749 122.475L48.4749 110.475L47.0607 109.061ZM35.0607 121.061C34.4749 121.646 33.5251 121.646 32.9393 121.061L31.5251 122.475C32.892 123.842 35.108 123.842 36.4749 122.475L35.0607 121.061ZM32.9393 121.061L20.9393 109.061L19.5251 110.475L31.5251 122.475L32.9393 121.061ZM20.9393 109.061C20.3536 108.475 20.3536 107.525 20.9393 106.939L19.5251 105.525C18.1583 106.892 18.1583 109.108 19.5251 110.475L20.9393 109.061ZM20.9393 106.939C21.5251 106.354 22.4749 106.354 23.0607 106.939L24.4749 105.525C23.108 104.158 20.892 104.158 19.5251 105.525L20.9393 106.939ZM23.0607 106.939L30.7929 114.672L32.2071 113.257L24.4749 105.525L23.0607 106.939ZM30.5 101.5V113.964H32.5V101.5H30.5ZM34 98C32.067 98 30.5 99.567 30.5 101.5H32.5C32.5 100.672 33.1716 100 34 100V98Z" fill="white" mask="url(#path-1-outside-1_274_2)"/>
</svg>
