<svg width="128" height="128" viewBox="0 0 128 128" fill="none" xmlns="http://www.w3.org/2000/svg">
<mask id="path-1-outside-1_274_2" maskUnits="userSpaceOnUse" x="16.4995" y="3.5" width="95" height="121" fill="black">
<rect fill="white" x="16.4995" y="3.5" width="95" height="121"/>
<path fill-rule="evenodd" clip-rule="evenodd" d="M94 5.5C94.9469 5.5 95.8126 6.03501 96.2361 6.88197L108.236 30.882C108.854 32.1169 108.353 33.6186 107.118 34.2361C105.883 34.8535 104.381 34.353 103.764 33.118L96.5 18.5902V26.5C96.5 27.8807 95.3807 29 94 29C92.6193 29 91.5 27.8807 91.5 26.5V18.5902L84.2361 33.118C83.6186 34.353 82.1169 34.8535 80.882 34.2361C79.647 33.6186 79.1465 32.1169 79.7639 30.882L91.7639 6.88197C92.1874 6.03501 93.0531 5.5 94 5.5ZM33.3327 11.5907C34.4156 11.2908 35.5656 11.7502 36.1437 12.7138L43.6437 25.2138C44.3541 26.3977 43.9702 27.9334 42.7862 28.6437C41.6023 29.3541 40.0666 28.9702 39.3563 27.7862L36.5 23.0258V26.5C36.5 27.8807 35.3807 29 34 29C32.6193 29 31.5 27.8807 31.5 26.5V14C31.5 12.8763 32.2497 11.8907 33.3327 11.5907ZM45.2138 32.6896C46.3977 31.9792 47.9334 32.3631 48.6437 33.5471L63.6437 58.5471C64.3541 59.731 63.9702 61.2667 62.7862 61.9771C61.6023 62.6874 60.0666 62.3035 59.3563 61.1196L44.3563 36.1196C43.6459 34.9356 44.0298 33.4 45.2138 32.6896ZM34 32.3333C35.3807 32.3333 36.5 33.4526 36.5 34.8333V59.8333C36.5 61.2141 35.3807 62.3333 34 62.3333C32.6193 62.3333 31.5 61.2141 31.5 59.8333V34.8333C31.5 33.4526 32.6193 32.3333 34 32.3333ZM94 32.3333C95.3807 32.3333 96.5 33.4526 96.5 34.8333V59.8333C96.5 61.2141 95.3807 62.3333 94 62.3333C92.6193 62.3333 91.5 61.2141 91.5 59.8333V34.8333C91.5 33.4526 92.6193 32.3333 94 32.3333ZM65.2138 66.0229C66.3977 65.3126 67.9334 65.6965 68.6437 66.8804L83.6437 91.8804C84.3541 93.0644 83.9702 94.6 82.7862 95.3104C81.6023 96.0208 80.0666 95.6369 79.3563 94.4529L64.3563 69.4529C63.6459 68.269 64.0298 66.7333 65.2138 66.0229ZM34 65.6667C35.3807 65.6667 36.5 66.786 36.5 68.1667V93.1667C36.5 94.5474 35.3807 95.6667 34 95.6667C32.6193 95.6667 31.5 94.5474 31.5 93.1667V68.1667C31.5 66.786 32.6193 65.6667 34 65.6667ZM94 65.6667C95.3807 65.6667 96.5 66.786 96.5 68.1667V93.1667C96.5 94.5474 95.3807 95.6667 94 95.6667C92.6193 95.6667 91.5 94.5474 91.5 93.1667V68.1667C91.5 66.786 92.6193 65.6667 94 65.6667ZM85.2138 99.3563C86.3977 98.6459 87.9334 99.0298 88.6437 100.214L91.5 104.974V101.5C91.5 100.119 92.6193 99 94 99C95.3807 99 96.5 100.119 96.5 101.5V114C96.5 115.124 95.7503 116.109 94.6673 116.409C93.5844 116.709 92.4344 116.25 91.8563 115.286L84.3563 102.786C83.6459 101.602 84.0298 100.067 85.2138 99.3563ZM34 99C35.3807 99 36.5 100.119 36.5 101.5V109.41L43.7639 94.882C44.3814 93.647 45.8831 93.1465 47.118 93.7639C48.353 94.3814 48.8535 95.8831 48.2361 97.118L36.2361 121.118C35.8126 121.965 34.9469 122.5 34 122.5C33.0531 122.5 32.1874 121.965 31.7639 121.118L19.7639 97.118C19.1465 95.8831 19.647 94.3814 20.882 93.7639C22.1169 93.1465 23.6186 93.647 24.2361 94.882L31.5 109.41V101.5C31.5 100.119 32.6193 99 34 99Z"/>
</mask>
<path fill-rule="evenodd" clip-rule="evenodd" d="M94 5.5C94.9469 5.5 95.8126 6.03501 96.2361 6.88197L108.236 30.882C108.854 32.1169 108.353 33.6186 107.118 34.2361C105.883 34.8535 104.381 34.353 103.764 33.118L96.5 18.5902V26.5C96.5 27.8807 95.3807 29 94 29C92.6193 29 91.5 27.8807 91.5 26.5V18.5902L84.2361 33.118C83.6186 34.353 82.1169 34.8535 80.882 34.2361C79.647 33.6186 79.1465 32.1169 79.7639 30.882L91.7639 6.88197C92.1874 6.03501 93.0531 5.5 94 5.5ZM33.3327 11.5907C34.4156 11.2908 35.5656 11.7502 36.1437 12.7138L43.6437 25.2138C44.3541 26.3977 43.9702 27.9334 42.7862 28.6437C41.6023 29.3541 40.0666 28.9702 39.3563 27.7862L36.5 23.0258V26.5C36.5 27.8807 35.3807 29 34 29C32.6193 29 31.5 27.8807 31.5 26.5V14C31.5 12.8763 32.2497 11.8907 33.3327 11.5907ZM45.2138 32.6896C46.3977 31.9792 47.9334 32.3631 48.6437 33.5471L63.6437 58.5471C64.3541 59.731 63.9702 61.2667 62.7862 61.9771C61.6023 62.6874 60.0666 62.3035 59.3563 61.1196L44.3563 36.1196C43.6459 34.9356 44.0298 33.4 45.2138 32.6896ZM34 32.3333C35.3807 32.3333 36.5 33.4526 36.5 34.8333V59.8333C36.5 61.2141 35.3807 62.3333 34 62.3333C32.6193 62.3333 31.5 61.2141 31.5 59.8333V34.8333C31.5 33.4526 32.6193 32.3333 34 32.3333ZM94 32.3333C95.3807 32.3333 96.5 33.4526 96.5 34.8333V59.8333C96.5 61.2141 95.3807 62.3333 94 62.3333C92.6193 62.3333 91.5 61.2141 91.5 59.8333V34.8333C91.5 33.4526 92.6193 32.3333 94 32.3333ZM65.2138 66.0229C66.3977 65.3126 67.9334 65.6965 68.6437 66.8804L83.6437 91.8804C84.3541 93.0644 83.9702 94.6 82.7862 95.3104C81.6023 96.0208 80.0666 95.6369 79.3563 94.4529L64.3563 69.4529C63.6459 68.269 64.0298 66.7333 65.2138 66.0229ZM34 65.6667C35.3807 65.6667 36.5 66.786 36.5 68.1667V93.1667C36.5 94.5474 35.3807 95.6667 34 95.6667C32.6193 95.6667 31.5 94.5474 31.5 93.1667V68.1667C31.5 66.786 32.6193 65.6667 34 65.6667ZM94 65.6667C95.3807 65.6667 96.5 66.786 96.5 68.1667V93.1667C96.5 94.5474 95.3807 95.6667 94 95.6667C92.6193 95.6667 91.5 94.5474 91.5 93.1667V68.1667C91.5 66.786 92.6193 65.6667 94 65.6667ZM85.2138 99.3563C86.3977 98.6459 87.9334 99.0298 88.6437 100.214L91.5 104.974V101.5C91.5 100.119 92.6193 99 94 99C95.3807 99 96.5 100.119 96.5 101.5V114C96.5 115.124 95.7503 116.109 94.6673 116.409C93.5844 116.709 92.4344 116.25 91.8563 115.286L84.3563 102.786C83.6459 101.602 84.0298 100.067 85.2138 99.3563ZM34 99C35.3807 99 36.5 100.119 36.5 101.5V109.41L43.7639 94.882C44.3814 93.647 45.8831 93.1465 47.118 93.7639C48.353 94.3814 48.8535 95.8831 48.2361 97.118L36.2361 121.118C35.8126 121.965 34.9469 122.5 34 122.5C33.0531 122.5 32.1874 121.965 31.7639 121.118L19.7639 97.118C19.1465 95.8831 19.647 94.3814 20.882 93.7639C22.1169 93.1465 23.6186 93.647 24.2361 94.882L31.5 109.41V101.5C31.5 100.119 32.6193 99 34 99Z" fill="black"/>
<path d="M96.2361 6.88197L94.4472 7.77639L94.4472 7.77639L96.2361 6.88197ZM108.236 30.882L110.025 29.9875L110.025 29.9875L108.236 30.882ZM107.118 34.2361L108.012 36.0249L108.012 36.0249L107.118 34.2361ZM103.764 33.118L101.975 34.0125L101.975 34.0125L103.764 33.118ZM96.5 18.5902L98.2889 17.6957C97.874 16.8661 96.9432 16.4306 96.0405 16.6437C95.1378 16.8568 94.5 17.6626 94.5 18.5902H96.5ZM91.5 18.5902H93.5C93.5 17.6626 92.8622 16.8568 91.9595 16.6437C91.0568 16.4306 90.126 16.8661 89.7111 17.6957L91.5 18.5902ZM84.2361 33.118L86.0249 34.0125L86.0249 34.0125L84.2361 33.118ZM80.882 34.2361L79.9875 36.0249L79.9875 36.0249L80.882 34.2361ZM79.7639 30.882L77.9751 29.9875L79.7639 30.882ZM91.7639 6.88197L93.5528 7.77639L93.5528 7.77639L91.7639 6.88197ZM36.1437 12.7138L34.4287 13.7428L34.4287 13.7428L36.1437 12.7138ZM33.3327 11.5907L33.8665 13.5181L33.8665 13.5181L33.3327 11.5907ZM43.6437 25.2138L45.3587 24.1848L45.3587 24.1848L43.6437 25.2138ZM39.3563 27.7862L37.6413 28.8152L37.6413 28.8152L39.3563 27.7862ZM36.5 23.0258L38.215 21.9968C37.7525 21.2259 36.8325 20.8584 35.9661 21.0984C35.0998 21.3383 34.5 22.1268 34.5 23.0258H36.5ZM48.6437 33.5471L50.3587 32.5181L50.3587 32.5181L48.6437 33.5471ZM45.2138 32.6896L44.1848 30.9746L44.1848 30.9746L45.2138 32.6896ZM63.6437 58.5471L61.9287 59.5761L61.9287 59.5761L63.6437 58.5471ZM62.7862 61.9771L61.7573 60.2621L61.7572 60.2621L62.7862 61.9771ZM59.3563 61.1196L61.0713 60.0906L61.0713 60.0906L59.3563 61.1196ZM44.3563 36.1196L42.6413 37.1486L42.6413 37.1486L44.3563 36.1196ZM68.6437 66.8804L66.9287 67.9094L66.9287 67.9094L68.6437 66.8804ZM65.2138 66.0229L64.1848 64.308L64.1848 64.308L65.2138 66.0229ZM83.6437 91.8804L85.3587 90.8514L85.3587 90.8514L83.6437 91.8804ZM82.7862 95.3104L81.7572 93.5954L81.7572 93.5954L82.7862 95.3104ZM79.3563 94.4529L81.0713 93.4239L81.0713 93.4239L79.3563 94.4529ZM64.3563 69.4529L66.0713 68.4239L66.0713 68.4239L64.3563 69.4529ZM88.6437 100.214L90.3587 99.1848L90.3587 99.1848L88.6437 100.214ZM85.2138 99.3563L84.1848 97.6413L84.1848 97.6413L85.2138 99.3563ZM91.5 104.974L89.785 106.003C90.2475 106.774 91.1675 107.142 92.0339 106.902C92.9002 106.662 93.5 105.873 93.5 104.974H91.5ZM94.6673 116.409L94.1335 114.482L94.1335 114.482L94.6673 116.409ZM91.8563 115.286L90.1413 116.315L90.1413 116.315L91.8563 115.286ZM84.3563 102.786L82.6413 103.815L82.6413 103.815L84.3563 102.786ZM36.5 109.41H34.5C34.5 110.337 35.1378 111.143 36.0405 111.356C36.9432 111.569 37.874 111.134 38.2889 110.304L36.5 109.41ZM47.118 93.7639L48.0125 91.9751L48.0125 91.9751L47.118 93.7639ZM48.2361 97.118L50.0249 98.0125L50.0249 98.0125L48.2361 97.118ZM31.7639 121.118L33.5528 120.224L33.5528 120.224L31.7639 121.118ZM19.7639 97.118L17.9751 98.0125L17.9751 98.0125L19.7639 97.118ZM20.882 93.7639L19.9875 91.9751L19.9875 91.9751L20.882 93.7639ZM31.5 109.41L29.7111 110.304C30.126 111.134 31.0568 111.569 31.9595 111.356C32.8622 111.143 33.5 110.337 33.5 109.41H31.5ZM98.0249 5.98754C97.2627 4.46301 95.7045 3.5 94 3.5V7.5C94.1894 7.5 94.3625 7.607 94.4472 7.77639L98.0249 5.98754ZM110.025 29.9875L98.0249 5.98754L94.4472 7.77639L106.447 31.7764L110.025 29.9875ZM108.012 36.0249C110.235 34.9135 111.136 32.2104 110.025 29.9875L106.447 31.7764C106.571 32.0234 106.471 32.3237 106.224 32.4472L108.012 36.0249ZM101.975 34.0125C103.087 36.2354 105.79 37.1364 108.012 36.0249L106.224 32.4472C105.977 32.5707 105.676 32.4706 105.553 32.2236L101.975 34.0125ZM94.7111 19.4846L101.975 34.0125L105.553 32.2236L98.2889 17.6957L94.7111 19.4846ZM98.5 26.5V18.5902H94.5V26.5H98.5ZM94 31C96.4853 31 98.5 28.9853 98.5 26.5H94.5C94.5 26.7761 94.2761 27 94 27V31ZM89.5 26.5C89.5 28.9853 91.5147 31 94 31V27C93.7239 27 93.5 26.7761 93.5 26.5H89.5ZM89.5 18.5902V26.5H93.5V18.5902H89.5ZM86.0249 34.0125L93.2889 19.4846L89.7111 17.6957L82.4472 32.2236L86.0249 34.0125ZM79.9875 36.0249C82.2104 37.1364 84.9135 36.2354 86.0249 34.0125L82.4472 32.2236C82.3237 32.4706 82.0234 32.5707 81.7764 32.4472L79.9875 36.0249ZM77.9751 29.9875C76.8636 32.2104 77.7646 34.9135 79.9875 36.0249L81.7764 32.4472C81.5294 32.3237 81.4293 32.0234 81.5528 31.7764L77.9751 29.9875ZM89.9751 5.98754L77.9751 29.9875L81.5528 31.7764L93.5528 7.77639L89.9751 5.98754ZM94 3.5C92.2955 3.5 90.7373 4.46301 89.9751 5.98754L93.5528 7.77639C93.6375 7.607 93.8106 7.5 94 7.5V3.5ZM37.8587 11.6848C36.8181 9.95035 34.7481 9.12336 32.7988 9.66328L33.8665 13.5181C34.0831 13.4582 34.3131 13.55 34.4287 13.7428L37.8587 11.6848ZM45.3587 24.1848L37.8587 11.6848L34.4287 13.7428L41.9287 26.2428L45.3587 24.1848ZM43.8152 30.3587C45.9463 29.0801 46.6374 26.3159 45.3587 24.1848L41.9287 26.2428C42.0708 26.4795 41.994 26.7867 41.7572 26.9287L43.8152 30.3587ZM37.6413 28.8152C38.9199 30.9463 41.6841 31.6374 43.8152 30.3587L41.7572 26.9287C41.5205 27.0708 41.2133 26.994 41.0713 26.7572L37.6413 28.8152ZM34.785 24.0548L37.6413 28.8152L41.0713 26.7572L38.215 21.9968L34.785 24.0548ZM38.5 26.5V23.0258H34.5V26.5H38.5ZM34 31C36.4853 31 38.5 28.9853 38.5 26.5H34.5C34.5 26.7761 34.2761 27 34 27V31ZM29.5 26.5C29.5 28.9853 31.5147 31 34 31V27C33.7239 27 33.5 26.7761 33.5 26.5H29.5ZM29.5 14V26.5H33.5V14H29.5ZM32.7988 9.66328C30.8495 10.2032 29.5 11.9773 29.5 14H33.5C33.5 13.7753 33.6499 13.5781 33.8665 13.5181L32.7988 9.66328ZM50.3587 32.5181C49.0801 30.387 46.3159 29.6959 44.1848 30.9746L46.2428 34.4046C46.4795 34.2625 46.7867 34.3393 46.9287 34.5761L50.3587 32.5181ZM65.3587 57.5181L50.3587 32.5181L46.9287 34.5761L61.9287 59.5761L65.3587 57.5181ZM63.8152 63.6921C65.9463 62.4134 66.6374 59.6492 65.3587 57.5181L61.9287 59.5761C62.0708 59.8129 61.994 60.12 61.7573 60.2621L63.8152 63.6921ZM57.6413 62.1486C58.9199 64.2797 61.6841 64.9707 63.8152 63.6921L61.7572 60.2621C61.5205 60.4042 61.2133 60.3274 61.0713 60.0906L57.6413 62.1486ZM42.6413 37.1486L57.6413 62.1486L61.0713 60.0906L46.0713 35.0906L42.6413 37.1486ZM44.1848 30.9746C42.0537 32.2533 41.3626 35.0175 42.6413 37.1486L46.0713 35.0906C45.9292 34.8538 46.006 34.5467 46.2428 34.4046L44.1848 30.9746ZM38.5 34.8333C38.5 32.3481 36.4853 30.3333 34 30.3333V34.3333C34.2761 34.3333 34.5 34.5572 34.5 34.8333H38.5ZM38.5 59.8333V34.8333H34.5V59.8333H38.5ZM34 64.3333C36.4853 64.3333 38.5 62.3186 38.5 59.8333H34.5C34.5 60.1095 34.2761 60.3333 34 60.3333V64.3333ZM29.5 59.8333C29.5 62.3186 31.5147 64.3333 34 64.3333V60.3333C33.7239 60.3333 33.5 60.1095 33.5 59.8333H29.5ZM29.5 34.8333V59.8333H33.5V34.8333H29.5ZM34 30.3333C31.5147 30.3333 29.5 32.3481 29.5 34.8333H33.5C33.5 34.5572 33.7239 34.3333 34 34.3333V30.3333ZM98.5 34.8333C98.5 32.3481 96.4853 30.3333 94 30.3333V34.3333C94.2761 34.3333 94.5 34.5572 94.5 34.8333H98.5ZM98.5 59.8333V34.8333H94.5V59.8333H98.5ZM94 64.3333C96.4853 64.3333 98.5 62.3186 98.5 59.8333H94.5C94.5 60.1095 94.2761 60.3333 94 60.3333V64.3333ZM89.5 59.8333C89.5 62.3186 91.5147 64.3333 94 64.3333V60.3333C93.7239 60.3333 93.5 60.1095 93.5 59.8333H89.5ZM89.5 34.8333V59.8333H93.5V34.8333H89.5ZM94 30.3333C91.5147 30.3333 89.5 32.3481 89.5 34.8333H93.5C93.5 34.5572 93.7239 34.3333 94 34.3333V30.3333ZM70.3587 65.8514C69.0801 63.7203 66.3159 63.0293 64.1848 64.308L66.2427 67.7379C66.4795 67.5958 66.7867 67.6726 66.9287 67.9094L70.3587 65.8514ZM85.3587 90.8514L70.3587 65.8514L66.9287 67.9094L81.9288 92.9094L85.3587 90.8514ZM83.8152 97.0254C85.9463 95.7467 86.6374 92.9826 85.3587 90.8514L81.9287 92.9094C82.0708 93.1462 81.994 93.4533 81.7572 93.5954L83.8152 97.0254ZM77.6413 95.4819C78.9199 97.613 81.6841 98.3041 83.8152 97.0254L81.7572 93.5954C81.5205 93.7375 81.2133 93.6607 81.0713 93.4239L77.6413 95.4819ZM62.6413 70.4819L77.6413 95.4819L81.0713 93.4239L66.0713 68.4239L62.6413 70.4819ZM64.1848 64.308C62.0537 65.5866 61.3626 68.3508 62.6413 70.4819L66.0713 68.4239C65.9292 68.1871 66.006 67.88 66.2428 67.7379L64.1848 64.308ZM38.5 68.1667C38.5 65.6814 36.4853 63.6667 34 63.6667V67.6667C34.2761 67.6667 34.5 67.8905 34.5 68.1667H38.5ZM38.5 93.1667V68.1667H34.5V93.1667H38.5ZM34 97.6667C36.4853 97.6667 38.5 95.6519 38.5 93.1667H34.5C34.5 93.4428 34.2761 93.6667 34 93.6667V97.6667ZM29.5 93.1667C29.5 95.6519 31.5147 97.6667 34 97.6667V93.6667C33.7239 93.6667 33.5 93.4428 33.5 93.1667H29.5ZM29.5 68.1667V93.1667H33.5V68.1667H29.5ZM34 63.6667C31.5147 63.6667 29.5 65.6814 29.5 68.1667H33.5C33.5 67.8905 33.7239 67.6667 34 67.6667V63.6667ZM98.5 68.1667C98.5 65.6814 96.4853 63.6667 94 63.6667V67.6667C94.2761 67.6667 94.5 67.8905 94.5 68.1667H98.5ZM98.5 93.1667V68.1667H94.5V93.1667H98.5ZM94 97.6667C96.4853 97.6667 98.5 95.6519 98.5 93.1667H94.5C94.5 93.4428 94.2761 93.6667 94 93.6667V97.6667ZM89.5 93.1667C89.5 95.6519 91.5147 97.6667 94 97.6667V93.6667C93.7239 93.6667 93.5 93.4428 93.5 93.1667H89.5ZM89.5 68.1667V93.1667H93.5V68.1667H89.5ZM94 63.6667C91.5147 63.6667 89.5 65.6814 89.5 68.1667H93.5C93.5 67.8905 93.7239 67.6667 94 67.6667V63.6667ZM90.3587 99.1848C89.0801 97.0537 86.3159 96.3626 84.1848 97.6413L86.2428 101.071C86.4795 100.929 86.7867 101.006 86.9288 101.243L90.3587 99.1848ZM93.215 103.945L90.3587 99.1848L86.9288 101.243L89.785 106.003L93.215 103.945ZM89.5 101.5V104.974H93.5V101.5H89.5ZM94 97C91.5147 97 89.5 99.0147 89.5 101.5H93.5C93.5 101.224 93.7239 101 94 101V97ZM98.5 101.5C98.5 99.0147 96.4853 97 94 97V101C94.2761 101 94.5 101.224 94.5 101.5H98.5ZM98.5 114V101.5H94.5V114H98.5ZM95.2012 118.337C97.1505 117.797 98.5 116.023 98.5 114H94.5C94.5 114.225 94.35 114.422 94.1335 114.482L95.2012 118.337ZM90.1413 116.315C91.1819 118.05 93.2519 118.877 95.2012 118.337L94.1335 114.482C93.9169 114.542 93.6869 114.45 93.5712 114.257L90.1413 116.315ZM82.6413 103.815L90.1413 116.315L93.5712 114.257L86.0712 101.757L82.6413 103.815ZM84.1848 97.6413C82.0537 98.92 81.3626 101.684 82.6413 103.815L86.0713 101.757C85.9292 101.52 86.006 101.213 86.2428 101.071L84.1848 97.6413ZM38.5 101.5C38.5 99.0147 36.4853 97 34 97V101C34.2761 101 34.5 101.224 34.5 101.5H38.5ZM38.5 109.41V101.5H34.5V109.41H38.5ZM38.2889 110.304L45.5528 95.7764L41.9751 93.9875L34.7111 108.515L38.2889 110.304ZM45.5528 95.7764C45.6763 95.5294 45.9766 95.4293 46.2236 95.5528L48.0125 91.9751C45.7896 90.8636 43.0865 91.7646 41.9751 93.9875L45.5528 95.7764ZM46.2236 95.5528C46.4706 95.6763 46.5707 95.9766 46.4472 96.2236L50.0249 98.0125C51.1364 95.7896 50.2354 93.0865 48.0125 91.9751L46.2236 95.5528ZM46.4472 96.2236L34.4472 120.224L38.0249 122.012L50.0249 98.0125L46.4472 96.2236ZM34.4472 120.224C34.3625 120.393 34.1894 120.5 34 120.5V124.5C35.7045 124.5 37.2627 123.537 38.0249 122.012L34.4472 120.224ZM34 120.5C33.8106 120.5 33.6375 120.393 33.5528 120.224L29.9751 122.012C30.7373 123.537 32.2955 124.5 34 124.5V120.5ZM33.5528 120.224L21.5528 96.2236L17.9751 98.0125L29.9751 122.012L33.5528 120.224ZM21.5528 96.2236C21.4293 95.9766 21.5294 95.6763 21.7764 95.5528L19.9875 91.9751C17.7646 93.0865 16.8636 95.7896 17.9751 98.0125L21.5528 96.2236ZM21.7764 95.5528C22.0234 95.4293 22.3237 95.5294 22.4472 95.7764L26.0249 93.9875C24.9135 91.7646 22.2104 90.8636 19.9875 91.9751L21.7764 95.5528ZM22.4472 95.7764L29.7111 110.304L33.2889 108.515L26.0249 93.9875L22.4472 95.7764ZM29.5 101.5V109.41H33.5V101.5H29.5ZM34 97C31.5147 97 29.5 99.0147 29.5 101.5H33.5C33.5 101.224 33.7239 101 34 101V97Z" fill="white" mask="url(#path-1-outside-1_274_2)"/>
</svg>
