<svg width="128" height="128" viewBox="0 0 128 128" fill="none" xmlns="http://www.w3.org/2000/svg">
<mask id="path-1-outside-1_274_2" maskUnits="userSpaceOnUse" x="10" y="3" width="107" height="122" fill="black">
<rect fill="white" x="10" y="3" width="107" height="122"/>
<path fill-rule="evenodd" clip-rule="evenodd" d="M95.0173 5.0012C96.0592 4.96907 97.0117 5.58685 97.4073 6.55131L113.814 46.5513C114.338 47.8287 113.727 49.2891 112.449 49.813C111.172 50.337 109.712 49.7261 109.188 48.4487L98.0007 21.1739V27C98.0007 28.3807 96.8814 29.5 95.5007 29.5C94.12 29.5 93.0007 28.3807 93.0007 27V21.4302L83.8677 48.3044C83.4235 49.6117 82.0035 50.3113 80.6963 49.8671C79.389 49.4228 78.6894 48.0029 79.1336 46.6956L92.7273 6.69559C93.0627 5.70859 93.9753 5.03332 95.0173 5.0012ZM29.7901 12.1031C30.8515 11.7885 31.9935 12.2093 32.5968 13.1375L40.7218 25.6375C41.4743 26.7952 41.1458 28.3436 39.9881 29.0961C38.8305 29.8486 37.282 29.5201 36.5296 28.3625L33.0007 22.9334V27C33.0007 28.3807 31.8814 29.5 30.5007 29.5C29.12 29.5 28.0007 28.3807 28.0007 27V14.5C28.0007 13.393 28.7287 12.4177 29.7901 12.1031ZM42.6799 33.2372C43.8375 32.4848 45.386 32.8132 46.1384 33.9709L62.3884 58.9709C63.1409 60.1285 62.8125 61.677 61.6548 62.4295C60.4972 63.1819 58.9487 62.8535 58.1962 61.6958L41.9462 36.6958C41.1938 35.5382 41.5222 33.9897 42.6799 33.2372ZM30.5007 32.8333C31.8814 32.8333 33.0007 33.9526 33.0007 35.3333V60.3333C33.0007 61.7141 31.8814 62.8333 30.5007 62.8333C29.12 62.8333 28.0007 61.7141 28.0007 60.3333V35.3333C28.0007 33.9526 29.12 32.8333 30.5007 32.8333ZM95.5007 32.8333C96.8814 32.8333 98.0007 33.9526 98.0007 35.3333V60.3333C98.0007 61.7141 96.8814 62.8333 95.5007 62.8333C94.12 62.8333 93.0007 61.7141 93.0007 60.3333V35.3333C93.0007 33.9526 94.12 32.8333 95.5007 32.8333ZM64.3465 66.5706C65.5042 65.8181 67.0526 66.1466 67.8051 67.3042L84.0551 92.3042C84.8076 93.4619 84.4791 95.0103 83.3215 95.7628C82.1638 96.5153 80.6154 96.1868 79.8629 95.0292L63.6129 70.0292C62.8604 68.8715 63.1889 67.323 64.3465 66.5706ZM30.5007 66.1667C31.8814 66.1667 33.0007 67.286 33.0007 68.6667V93.6667C33.0007 95.0474 31.8814 96.1667 30.5007 96.1667C29.12 96.1667 28.0007 95.0474 28.0007 93.6667V68.6667C28.0007 67.286 29.12 66.1667 30.5007 66.1667ZM95.5007 66.1667C96.8814 66.1667 98.0007 67.286 98.0007 68.6667V93.6667C98.0007 95.0474 96.8814 96.1667 95.5007 96.1667C94.12 96.1667 93.0007 95.0474 93.0007 93.6667V68.6667C93.0007 67.286 94.12 66.1667 95.5007 66.1667ZM86.0132 99.9039C87.1709 99.1514 88.7193 99.4799 89.4718 100.638L93.0007 106.067V102C93.0007 100.619 94.12 99.5 95.5007 99.5C96.8814 99.5 98.0007 100.619 98.0007 102V114.5C98.0007 115.607 97.2726 116.582 96.2112 116.897C95.1498 117.212 94.0079 116.791 93.4046 115.862L85.2796 103.362C84.5271 102.205 84.8556 100.656 86.0132 99.9039ZM30.5007 99.5C31.8814 99.5 33.0007 100.619 33.0007 102V106.713L43.1599 79.6222C43.6447 78.3294 45.0857 77.6744 46.3785 78.1592C47.6713 78.644 48.3263 80.085 47.8415 81.3778L32.8415 121.378C32.4756 122.354 31.5428 123 30.5007 123C29.4586 123 28.5258 122.354 28.1599 121.378L13.1599 81.3778C12.6751 80.085 13.3301 78.644 14.6229 78.1592C15.9157 77.6744 17.3567 78.3294 17.8415 79.6222L28.0007 106.713V102C28.0007 100.619 29.12 99.5 30.5007 99.5Z"/>
</mask>
<path fill-rule="evenodd" clip-rule="evenodd" d="M95.0173 5.0012C96.0592 4.96907 97.0117 5.58685 97.4073 6.55131L113.814 46.5513C114.338 47.8287 113.727 49.2891 112.449 49.813C111.172 50.337 109.712 49.7261 109.188 48.4487L98.0007 21.1739V27C98.0007 28.3807 96.8814 29.5 95.5007 29.5C94.12 29.5 93.0007 28.3807 93.0007 27V21.4302L83.8677 48.3044C83.4235 49.6117 82.0035 50.3113 80.6963 49.8671C79.389 49.4228 78.6894 48.0029 79.1336 46.6956L92.7273 6.69559C93.0627 5.70859 93.9753 5.03332 95.0173 5.0012ZM29.7901 12.1031C30.8515 11.7885 31.9935 12.2093 32.5968 13.1375L40.7218 25.6375C41.4743 26.7952 41.1458 28.3436 39.9881 29.0961C38.8305 29.8486 37.282 29.5201 36.5296 28.3625L33.0007 22.9334V27C33.0007 28.3807 31.8814 29.5 30.5007 29.5C29.12 29.5 28.0007 28.3807 28.0007 27V14.5C28.0007 13.393 28.7287 12.4177 29.7901 12.1031ZM42.6799 33.2372C43.8375 32.4848 45.386 32.8132 46.1384 33.9709L62.3884 58.9709C63.1409 60.1285 62.8125 61.677 61.6548 62.4295C60.4972 63.1819 58.9487 62.8535 58.1962 61.6958L41.9462 36.6958C41.1938 35.5382 41.5222 33.9897 42.6799 33.2372ZM30.5007 32.8333C31.8814 32.8333 33.0007 33.9526 33.0007 35.3333V60.3333C33.0007 61.7141 31.8814 62.8333 30.5007 62.8333C29.12 62.8333 28.0007 61.7141 28.0007 60.3333V35.3333C28.0007 33.9526 29.12 32.8333 30.5007 32.8333ZM95.5007 32.8333C96.8814 32.8333 98.0007 33.9526 98.0007 35.3333V60.3333C98.0007 61.7141 96.8814 62.8333 95.5007 62.8333C94.12 62.8333 93.0007 61.7141 93.0007 60.3333V35.3333C93.0007 33.9526 94.12 32.8333 95.5007 32.8333ZM64.3465 66.5706C65.5042 65.8181 67.0526 66.1466 67.8051 67.3042L84.0551 92.3042C84.8076 93.4619 84.4791 95.0103 83.3215 95.7628C82.1638 96.5153 80.6154 96.1868 79.8629 95.0292L63.6129 70.0292C62.8604 68.8715 63.1889 67.323 64.3465 66.5706ZM30.5007 66.1667C31.8814 66.1667 33.0007 67.286 33.0007 68.6667V93.6667C33.0007 95.0474 31.8814 96.1667 30.5007 96.1667C29.12 96.1667 28.0007 95.0474 28.0007 93.6667V68.6667C28.0007 67.286 29.12 66.1667 30.5007 66.1667ZM95.5007 66.1667C96.8814 66.1667 98.0007 67.286 98.0007 68.6667V93.6667C98.0007 95.0474 96.8814 96.1667 95.5007 96.1667C94.12 96.1667 93.0007 95.0474 93.0007 93.6667V68.6667C93.0007 67.286 94.12 66.1667 95.5007 66.1667ZM86.0132 99.9039C87.1709 99.1514 88.7193 99.4799 89.4718 100.638L93.0007 106.067V102C93.0007 100.619 94.12 99.5 95.5007 99.5C96.8814 99.5 98.0007 100.619 98.0007 102V114.5C98.0007 115.607 97.2726 116.582 96.2112 116.897C95.1498 117.212 94.0079 116.791 93.4046 115.862L85.2796 103.362C84.5271 102.205 84.8556 100.656 86.0132 99.9039ZM30.5007 99.5C31.8814 99.5 33.0007 100.619 33.0007 102V106.713L43.1599 79.6222C43.6447 78.3294 45.0857 77.6744 46.3785 78.1592C47.6713 78.644 48.3263 80.085 47.8415 81.3778L32.8415 121.378C32.4756 122.354 31.5428 123 30.5007 123C29.4586 123 28.5258 122.354 28.1599 121.378L13.1599 81.3778C12.6751 80.085 13.3301 78.644 14.6229 78.1592C15.9157 77.6744 17.3567 78.3294 17.8415 79.6222L28.0007 106.713V102C28.0007 100.619 29.12 99.5 30.5007 99.5Z" fill="black"/>
<path d="M97.4073 6.55131L99.2577 5.79235L99.2577 5.79235L97.4073 6.55131ZM95.0173 5.0012L94.9557 3.00215L94.9557 3.00215L95.0173 5.0012ZM113.814 46.5513L115.664 45.7924L115.664 45.7924L113.814 46.5513ZM109.188 48.4487L107.337 49.2077L107.337 49.2077L109.188 48.4487ZM98.0007 21.1739L99.8511 20.415C99.4885 19.531 98.5513 19.0269 97.6139 19.2117C96.6765 19.3964 96.0007 20.2185 96.0007 21.1739H98.0007ZM93.0007 21.4302H95.0007C95.0007 20.4515 94.2924 19.6166 93.3268 19.457C92.3612 19.2974 91.422 19.8601 91.107 20.7867L93.0007 21.4302ZM83.8677 48.3044L85.7614 48.948L85.7614 48.948L83.8677 48.3044ZM80.6963 49.8671L80.0527 51.7607L80.0527 51.7607L80.6963 49.8671ZM79.1336 46.6956L77.24 46.0521L77.24 46.0521L79.1336 46.6956ZM92.7273 6.69559L94.6209 7.33912L94.6209 7.33912L92.7273 6.69559ZM32.5968 13.1375L34.2737 12.0476L34.2737 12.0476L32.5968 13.1375ZM29.7901 12.1031L30.3586 14.0206L30.3586 14.0206L29.7901 12.1031ZM40.7218 25.6375L39.0449 26.7275L39.0449 26.7275L40.7218 25.6375ZM39.9881 29.0961L41.0781 30.773L41.0781 30.773L39.9881 29.0961ZM36.5296 28.3625L38.2065 27.2725L38.2065 27.2725L36.5296 28.3625ZM33.0007 22.9334L34.6776 21.8434C34.1949 21.1009 33.2814 20.7642 32.4322 21.0159C31.5831 21.2676 31.0007 22.0478 31.0007 22.9334H33.0007ZM46.1384 33.9709L44.4616 35.0608L44.4616 35.0608L46.1384 33.9709ZM42.6799 33.2372L41.5899 31.5603L41.5899 31.5603L42.6799 33.2372ZM62.3884 58.9709L60.7116 60.0608L60.7116 60.0609L62.3884 58.9709ZM61.6548 62.4295L62.7448 64.1063L62.7448 64.1063L61.6548 62.4295ZM58.1962 61.6958L59.8731 60.6058L59.8731 60.6058L58.1962 61.6958ZM41.9462 36.6958L40.2693 37.7858L40.2693 37.7858L41.9462 36.6958ZM67.8051 67.3042L66.1282 68.3942L66.1282 68.3942L67.8051 67.3042ZM64.3465 66.5706L63.2566 64.8937L63.2566 64.8937L64.3465 66.5706ZM84.0551 92.3042L82.3782 93.3942L82.3782 93.3942L84.0551 92.3042ZM83.3215 95.7628L82.2315 94.0859L82.2315 94.0859L83.3215 95.7628ZM79.8629 95.0292L78.186 96.1191L78.186 96.1191L79.8629 95.0292ZM63.6129 70.0292L61.936 71.1191L61.936 71.1191L63.6129 70.0292ZM89.4718 100.638L91.1487 99.5476L91.1487 99.5476L89.4718 100.638ZM93.0007 106.067L91.3238 107.157C91.8065 107.899 92.72 108.236 93.5691 107.984C94.4182 107.732 95.0007 106.952 95.0007 106.067H93.0007ZM96.2112 116.897L96.7796 118.814L96.7796 118.814L96.2112 116.897ZM93.4046 115.862L91.7277 116.952L91.7277 116.952L93.4046 115.862ZM85.2796 103.362L86.9564 102.273L86.9564 102.273L85.2796 103.362ZM33.0007 106.713H31.0007C31.0007 107.68 31.6924 108.509 32.6438 108.681C33.5952 108.854 34.5338 108.321 34.8733 107.416L33.0007 106.713ZM43.1599 79.6222L45.0325 80.3244L45.0325 80.3244L43.1599 79.6222ZM46.3785 78.1592L45.6762 80.0318L45.6762 80.0318L46.3785 78.1592ZM47.8415 81.3778L49.7142 82.0801L49.7142 82.0801L47.8415 81.3778ZM32.8415 121.378L30.9688 120.676L30.9688 120.676L32.8415 121.378ZM28.1599 121.378L30.0325 120.676L30.0325 120.676L28.1599 121.378ZM13.1599 81.3778L11.2872 82.0801L11.2872 82.0801L13.1599 81.3778ZM14.6229 78.1592L15.3251 80.0318L15.3251 80.0318L14.6229 78.1592ZM17.8415 79.6222L15.9688 80.3244L15.9688 80.3244L17.8415 79.6222ZM28.0007 106.713L26.128 107.416C26.4675 108.321 27.4061 108.854 28.3575 108.681C29.3089 108.509 30.0007 107.68 30.0007 106.713H28.0007ZM99.2577 5.79235C98.5457 4.05632 96.8312 2.94433 94.9557 3.00215L95.0789 7.00025C95.2873 6.99382 95.4778 7.11738 95.5569 7.31027L99.2577 5.79235ZM115.664 45.7924L99.2577 5.79235L95.5569 7.31027L111.963 47.3103L115.664 45.7924ZM113.208 51.6634C115.508 50.7203 116.607 48.0917 115.664 45.7924L111.963 47.3103C112.068 47.5658 111.946 47.8578 111.69 47.9626L113.208 51.6634ZM107.337 49.2077C108.28 51.507 110.909 52.6065 113.208 51.6634L111.69 47.9626C111.435 48.0674 111.143 47.9452 111.038 47.6897L107.337 49.2077ZM96.1503 21.9329L107.337 49.2077L111.038 47.6897L99.8511 20.415L96.1503 21.9329ZM100.001 27V21.1739H96.0007V27H100.001ZM95.5007 31.5C97.986 31.5 100.001 29.4853 100.001 27H96.0007C96.0007 27.2761 95.7768 27.5 95.5007 27.5V31.5ZM91.0007 27C91.0007 29.4853 93.0154 31.5 95.5007 31.5V27.5C95.2245 27.5 95.0007 27.2762 95.0007 27H91.0007ZM91.0007 21.4302V27H95.0007V21.4302H91.0007ZM85.7614 48.948L94.8943 22.0738L91.107 20.7867L81.9741 47.6609L85.7614 48.948ZM80.0527 51.7607C82.4058 52.5604 84.9617 51.3011 85.7614 48.948L81.9741 47.6609C81.8852 47.9224 81.6012 48.0623 81.3398 47.9734L80.0527 51.7607ZM77.24 46.0521C76.4403 48.4052 77.6996 50.961 80.0527 51.7607L81.3398 47.9734C81.0783 47.8846 80.9384 47.6006 81.0273 47.3391L77.24 46.0521ZM90.8336 6.05205L77.24 46.0521L81.0273 47.3391L94.6209 7.33912L90.8336 6.05205ZM94.9557 3.00215C93.0802 3.05996 91.4374 4.27545 90.8336 6.05206L94.6209 7.33912C94.688 7.14173 94.8705 7.00667 95.0789 7.00025L94.9557 3.00215ZM34.2737 12.0476C33.1877 10.3768 31.1322 9.61924 29.2217 10.1856L30.3586 14.0206C30.5708 13.9577 30.7992 14.0419 30.9199 14.2275L34.2737 12.0476ZM42.3987 24.5476L34.2737 12.0476L30.9199 14.2275L39.0449 26.7275L42.3987 24.5476ZM41.0781 30.773C43.1619 29.4186 43.7531 26.6313 42.3987 24.5476L39.0449 26.7275C39.1954 26.959 39.1297 27.2687 38.8982 27.4192L41.0781 30.773ZM34.8527 29.4525C36.2071 31.5362 38.9944 32.1275 41.0781 30.773L38.8982 27.4192C38.6666 27.5697 38.3569 27.504 38.2065 27.2725L34.8527 29.4525ZM31.3238 24.0234L34.8527 29.4525L38.2065 27.2725L34.6776 21.8434L31.3238 24.0234ZM35.0007 27V22.9334H31.0007V27H35.0007ZM30.5007 31.5C32.986 31.5 35.0007 29.4853 35.0007 27H31.0007C31.0007 27.2762 30.7768 27.5 30.5007 27.5V31.5ZM26.0007 27C26.0007 29.4853 28.0154 31.5 30.5007 31.5V27.5C30.2245 27.5 30.0007 27.2762 30.0007 27H26.0007ZM26.0007 14.5V27H30.0007V14.5H26.0007ZM29.2217 10.1856C27.3112 10.7519 26.0007 12.5073 26.0007 14.5H30.0007C30.0007 14.2786 30.1463 14.0836 30.3586 14.0206L29.2217 10.1856ZM47.8153 32.8809C46.4609 30.7971 43.6737 30.2059 41.5899 31.5603L43.7698 34.9141C44.0014 34.7636 44.3111 34.8293 44.4616 35.0608L47.8153 32.8809ZM64.0653 57.8809L47.8153 32.8809L44.4616 35.0608L60.7116 60.0608L64.0653 57.8809ZM62.7448 64.1063C64.8286 62.7519 65.4198 59.9647 64.0653 57.8809L60.7116 60.0609C60.8621 60.2924 60.7964 60.6021 60.5648 60.7526L62.7448 64.1063ZM56.5193 62.7858C57.8738 64.8696 60.661 65.4608 62.7448 64.1063L60.5648 60.7526C60.3333 60.9031 60.0236 60.8374 59.8731 60.6058L56.5193 62.7858ZM40.2693 37.7858L56.5193 62.7858L59.8731 60.6058L43.6231 35.6058L40.2693 37.7858ZM41.5899 31.5603C39.5061 32.9148 38.9149 35.702 40.2693 37.7858L43.6231 35.6058C43.4726 35.3743 43.5383 35.0646 43.7698 34.9141L41.5899 31.5603ZM35.0007 35.3333C35.0007 32.8481 32.986 30.8333 30.5007 30.8333V34.8333C30.7768 34.8333 31.0007 35.0572 31.0007 35.3333H35.0007ZM35.0007 60.3333V35.3333H31.0007V60.3333H35.0007ZM30.5007 64.8333C32.986 64.8333 35.0007 62.8186 35.0007 60.3333H31.0007C31.0007 60.6095 30.7768 60.8333 30.5007 60.8333V64.8333ZM26.0007 60.3333C26.0007 62.8186 28.0154 64.8333 30.5007 64.8333V60.8333C30.2245 60.8333 30.0007 60.6095 30.0007 60.3333H26.0007ZM26.0007 35.3333V60.3333H30.0007V35.3333H26.0007ZM30.5007 30.8333C28.0154 30.8333 26.0007 32.8481 26.0007 35.3333H30.0007C30.0007 35.0572 30.2245 34.8333 30.5007 34.8333V30.8333ZM100.001 35.3333C100.001 32.8481 97.986 30.8333 95.5007 30.8333V34.8333C95.7768 34.8333 96.0007 35.0572 96.0007 35.3333H100.001ZM100.001 60.3333V35.3333H96.0007V60.3333H100.001ZM95.5007 64.8333C97.986 64.8333 100.001 62.8186 100.001 60.3333H96.0007C96.0007 60.6095 95.7768 60.8333 95.5007 60.8333V64.8333ZM91.0007 60.3333C91.0007 62.8186 93.0154 64.8333 95.5007 64.8333V60.8333C95.2245 60.8333 95.0007 60.6095 95.0007 60.3333H91.0007ZM91.0007 35.3333V60.3333H95.0007V35.3333H91.0007ZM95.5007 30.8333C93.0154 30.8333 91.0007 32.8481 91.0007 35.3333H95.0007C95.0007 35.0572 95.2245 34.8333 95.5007 34.8333V30.8333ZM69.482 66.2142C68.1276 64.1305 65.3403 63.5392 63.2566 64.8937L65.4365 68.2475C65.668 68.097 65.9777 68.1627 66.1282 68.3942L69.482 66.2142ZM85.732 91.2142L69.482 66.2142L66.1282 68.3942L82.3782 93.3942L85.732 91.2142ZM84.4115 97.4397C86.4952 96.0852 87.0865 93.298 85.732 91.2142L82.3782 93.3942C82.5287 93.6257 82.463 93.9354 82.2315 94.0859L84.4115 97.4397ZM78.186 96.1191C79.5405 98.2029 82.3277 98.7941 84.4115 97.4397L82.2315 94.0859C82 94.2364 81.6903 94.1707 81.5398 93.9392L78.186 96.1191ZM61.936 71.1191L78.186 96.1191L81.5398 93.9392L65.2898 68.9392L61.936 71.1191ZM63.2566 64.8937C61.1728 66.2481 60.5816 69.0354 61.936 71.1191L65.2898 68.9392C65.1393 68.7076 65.205 68.3979 65.4365 68.2475L63.2566 64.8937ZM35.0007 68.6667C35.0007 66.1814 32.986 64.1667 30.5007 64.1667V68.1667C30.7768 68.1667 31.0007 68.3905 31.0007 68.6667H35.0007ZM35.0007 93.6667V68.6667H31.0007V93.6667H35.0007ZM30.5007 98.1667C32.986 98.1667 35.0007 96.152 35.0007 93.6667H31.0007C31.0007 93.9428 30.7768 94.1667 30.5007 94.1667V98.1667ZM26.0007 93.6667C26.0007 96.152 28.0154 98.1667 30.5007 98.1667V94.1667C30.2245 94.1667 30.0007 93.9428 30.0007 93.6667H26.0007ZM26.0007 68.6667V93.6667H30.0007V68.6667H26.0007ZM30.5007 64.1667C28.0154 64.1667 26.0007 66.1814 26.0007 68.6667H30.0007C30.0007 68.3905 30.2245 68.1667 30.5007 68.1667V64.1667ZM100.001 68.6667C100.001 66.1814 97.986 64.1667 95.5007 64.1667V68.1667C95.7768 68.1667 96.0007 68.3905 96.0007 68.6667H100.001ZM100.001 93.6667V68.6667H96.0007V93.6667H100.001ZM95.5007 98.1667C97.986 98.1667 100.001 96.152 100.001 93.6667H96.0007C96.0007 93.9428 95.7768 94.1667 95.5007 94.1667V98.1667ZM91.0007 93.6667C91.0007 96.152 93.0154 98.1667 95.5007 98.1667V94.1667C95.2245 94.1667 95.0007 93.9428 95.0007 93.6667H91.0007ZM91.0007 68.6667V93.6667H95.0007V68.6667H91.0007ZM95.5007 64.1667C93.0154 64.1667 91.0007 66.1814 91.0007 68.6667H95.0007C95.0007 68.3905 95.2245 68.1667 95.5007 68.1667V64.1667ZM91.1487 99.5476C89.7942 97.4638 87.007 96.8726 84.9232 98.227L87.1032 101.581C87.3347 101.43 87.6444 101.496 87.7949 101.728L91.1487 99.5476ZM94.6776 104.977L91.1487 99.5476L87.7949 101.728L91.3238 107.157L94.6776 104.977ZM91.0007 102V106.067H95.0007V102H91.0007ZM95.5007 97.5C93.0154 97.5 91.0007 99.5147 91.0007 102H95.0007C95.0007 101.724 95.2245 101.5 95.5007 101.5V97.5ZM100.001 102C100.001 99.5147 97.986 97.5 95.5007 97.5V101.5C95.7768 101.5 96.0007 101.724 96.0007 102H100.001ZM100.001 114.5V102H96.0007V114.5H100.001ZM96.7796 118.814C98.6902 118.248 100.001 116.493 100.001 114.5H96.0007C96.0007 114.721 95.8551 114.916 95.6428 114.979L96.7796 118.814ZM91.7277 116.952C92.8137 118.623 94.8691 119.381 96.7796 118.814L95.6428 114.979C95.4305 115.042 95.2021 114.958 95.0814 114.772L91.7277 116.952ZM83.6027 104.452L91.7277 116.952L95.0814 114.773L86.9564 102.273L83.6027 104.452ZM84.9232 98.227C82.8395 99.5815 82.2482 102.369 83.6027 104.452L86.9564 102.273C86.806 102.041 86.8716 101.731 87.1032 101.581L84.9232 98.227ZM35.0007 102C35.0007 99.5147 32.986 97.5 30.5007 97.5V101.5C30.7768 101.5 31.0007 101.724 31.0007 102H35.0007ZM35.0007 106.713V102H31.0007V106.713H35.0007ZM34.8733 107.416L45.0325 80.3244L41.2872 78.92L31.128 106.011L34.8733 107.416ZM45.0325 80.3244C45.1295 80.0659 45.4177 79.9349 45.6762 80.0318L47.0807 76.2865C44.7537 75.4139 42.1598 76.5929 41.2872 78.92L45.0325 80.3244ZM45.6762 80.0318C45.9348 80.1288 46.0658 80.417 45.9688 80.6756L49.7142 82.0801C50.5868 79.753 49.4078 77.1592 47.0807 76.2865L45.6762 80.0318ZM45.9688 80.6756L30.9688 120.676L34.7142 122.08L49.7142 82.0801L45.9688 80.6756ZM30.9688 120.676C30.8957 120.871 30.7091 121 30.5007 121V125C32.3765 125 34.0555 123.836 34.7142 122.08L30.9688 120.676ZM30.5007 121C30.2923 121 30.1057 120.871 30.0325 120.676L26.2872 122.08C26.9458 123.836 28.6249 125 30.5007 125V121ZM30.0325 120.676L15.0325 80.6756L11.2872 82.0801L26.2872 122.08L30.0325 120.676ZM15.0325 80.6756C14.9355 80.417 15.0666 80.1288 15.3251 80.0318L13.9206 76.2865C11.5936 77.1592 10.4146 79.753 11.2872 82.0801L15.0325 80.6756ZM15.3251 80.0318C15.5837 79.9349 15.8719 80.0659 15.9688 80.3244L19.7142 78.92C18.8415 76.5929 16.2477 75.4139 13.9206 76.2865L15.3251 80.0318ZM15.9688 80.3244L26.128 107.416L29.8733 106.011L19.7142 78.92L15.9688 80.3244ZM26.0007 102V106.713H30.0007V102H26.0007ZM30.5007 97.5C28.0154 97.5 26.0007 99.5147 26.0007 102H30.0007C30.0007 101.724 30.2245 101.5 30.5007 101.5V97.5Z" fill="white" mask="url(#path-1-outside-1_274_2)"/>
</svg>
